<mxfile host="app.diagrams.net" modified="2020-08-25T10:43:09.042Z" agent="5.0 (Macintosh; Intel Mac OS X 10_15_6) AppleWebKit/605.1.15 (KHTML, like Gecko) Version/13.1.2 Safari/605.1.15" etag="hXhfRfaTMbv8ov8D88ok" version="13.6.4" type="github">
  <diagram id="p9JAmEwspsk7bqvlZ2XF" name="Page-1">
    <mxGraphModel dx="1070" dy="539" grid="0" gridSize="10" guides="1" tooltips="1" connect="1" arrows="1" fold="1" page="1" pageScale="1" pageWidth="827" pageHeight="1169" math="0" shadow="0">
      <root>
        <mxCell id="0" />
        <mxCell id="1" parent="0" />
        <mxCell id="4idgu7EIr6EQUySL27Tn-21" value="" style="rounded=0;whiteSpace=wrap;html=1;strokeWidth=2;fontColor=#3399FF;dashed=1;strokeColor=#66B2FF;" parent="1" vertex="1">
          <mxGeometry x="464" y="147" width="167" height="148" as="geometry" />
        </mxCell>
        <mxCell id="4idgu7EIr6EQUySL27Tn-22" value="funcA" style="text;html=1;align=center;verticalAlign=middle;resizable=0;points=[];autosize=1;fontColor=#3399FF;fontSize=15;" parent="1" vertex="1">
          <mxGeometry x="524.5" y="119" width="48" height="22" as="geometry" />
        </mxCell>
        <mxCell id="4idgu7EIr6EQUySL27Tn-19" value="" style="rounded=0;whiteSpace=wrap;html=1;strokeWidth=2;fontColor=#3399FF;dashed=1;strokeColor=#66B2FF;" parent="1" vertex="1">
          <mxGeometry x="251" y="147" width="167" height="148" as="geometry" />
        </mxCell>
        <mxCell id="4idgu7EIr6EQUySL27Tn-20" value="funcB" style="text;html=1;align=center;verticalAlign=middle;resizable=0;points=[];autosize=1;fontColor=#3399FF;fontSize=15;" parent="1" vertex="1">
          <mxGeometry x="311.5" y="119" width="48" height="22" as="geometry" />
        </mxCell>
        <mxCell id="4idgu7EIr6EQUySL27Tn-17" value="" style="rounded=0;whiteSpace=wrap;html=1;strokeWidth=2;fontColor=#3399FF;dashed=1;strokeColor=#66B2FF;" parent="1" vertex="1">
          <mxGeometry x="40" y="147" width="167" height="148" as="geometry" />
        </mxCell>
        <mxCell id="4idgu7EIr6EQUySL27Tn-1" value="&lt;font style=&quot;font-size: 15px&quot;&gt;rbp&lt;/font&gt;" style="rounded=0;whiteSpace=wrap;html=1;fillColor=#dae8fc;strokeColor=#6c8ebf;strokeWidth=2;" parent="1" vertex="1">
          <mxGeometry x="53" y="201" width="71" height="60" as="geometry" />
        </mxCell>
        <mxCell id="4idgu7EIr6EQUySL27Tn-2" value="&lt;font style=&quot;font-size: 15px&quot;&gt;pc&lt;/font&gt;" style="rounded=0;whiteSpace=wrap;html=1;fillColor=#dae8fc;strokeColor=#6c8ebf;strokeWidth=2;" parent="1" vertex="1">
          <mxGeometry x="124" y="201" width="71" height="60" as="geometry" />
        </mxCell>
        <mxCell id="4idgu7EIr6EQUySL27Tn-3" value="&lt;font style=&quot;font-size: 15px&quot;&gt;rbp&lt;/font&gt;" style="rounded=0;whiteSpace=wrap;html=1;fillColor=#dae8fc;strokeColor=#6c8ebf;strokeWidth=2;" parent="1" vertex="1">
          <mxGeometry x="265" y="201" width="71" height="60" as="geometry" />
        </mxCell>
        <mxCell id="4idgu7EIr6EQUySL27Tn-4" value="&lt;font style=&quot;font-size: 15px&quot;&gt;pc&lt;/font&gt;" style="rounded=0;whiteSpace=wrap;html=1;fillColor=#dae8fc;strokeColor=#6c8ebf;strokeWidth=2;" parent="1" vertex="1">
          <mxGeometry x="336" y="201" width="71" height="60" as="geometry" />
        </mxCell>
        <mxCell id="4idgu7EIr6EQUySL27Tn-7" value="" style="endArrow=classic;html=1;exitX=0.5;exitY=1;exitDx=0;exitDy=0;entryX=0;entryY=1;entryDx=0;entryDy=0;strokeWidth=2;curved=1;strokeColor=#66B2FF;" parent="1" source="4idgu7EIr6EQUySL27Tn-1" target="4idgu7EIr6EQUySL27Tn-3" edge="1">
          <mxGeometry width="50" height="50" relative="1" as="geometry">
            <mxPoint x="255" y="313" as="sourcePoint" />
            <mxPoint x="305" y="263" as="targetPoint" />
            <Array as="points">
              <mxPoint x="126" y="298" />
              <mxPoint x="222" y="293" />
            </Array>
          </mxGeometry>
        </mxCell>
        <mxCell id="4idgu7EIr6EQUySL27Tn-8" value="&lt;font style=&quot;font-size: 15px&quot;&gt;rbp&lt;/font&gt;" style="rounded=0;whiteSpace=wrap;html=1;fillColor=#dae8fc;strokeColor=#6c8ebf;strokeWidth=2;" parent="1" vertex="1">
          <mxGeometry x="477" y="201" width="71" height="60" as="geometry" />
        </mxCell>
        <mxCell id="4idgu7EIr6EQUySL27Tn-9" value="&lt;font style=&quot;font-size: 15px&quot;&gt;pc&lt;/font&gt;" style="rounded=0;whiteSpace=wrap;html=1;fillColor=#dae8fc;strokeColor=#6c8ebf;strokeWidth=2;" parent="1" vertex="1">
          <mxGeometry x="548" y="201" width="71" height="60" as="geometry" />
        </mxCell>
        <mxCell id="4idgu7EIr6EQUySL27Tn-10" value="" style="endArrow=classic;html=1;exitX=0.5;exitY=0;exitDx=0;exitDy=0;entryX=0;entryY=0;entryDx=0;entryDy=0;strokeWidth=2;curved=1;strokeColor=#66B2FF;" parent="1" source="4idgu7EIr6EQUySL27Tn-3" target="4idgu7EIr6EQUySL27Tn-8" edge="1">
          <mxGeometry width="50" height="50" relative="1" as="geometry">
            <mxPoint x="346" y="133" as="sourcePoint" />
            <mxPoint x="522.5" y="133" as="targetPoint" />
            <Array as="points">
              <mxPoint x="344" y="172" />
              <mxPoint x="436" y="165" />
            </Array>
          </mxGeometry>
        </mxCell>
        <mxCell id="4idgu7EIr6EQUySL27Tn-11" value="" style="endArrow=classic;html=1;exitX=0.5;exitY=1;exitDx=0;exitDy=0;entryX=0;entryY=1;entryDx=0;entryDy=0;strokeWidth=2;curved=1;strokeColor=#66B2FF;" parent="1" source="4idgu7EIr6EQUySL27Tn-8" target="4idgu7EIr6EQUySL27Tn-13" edge="1">
          <mxGeometry width="50" height="50" relative="1" as="geometry">
            <mxPoint x="587" y="265" as="sourcePoint" />
            <mxPoint x="763.5" y="265" as="targetPoint" />
            <Array as="points">
              <mxPoint x="543" y="282" />
              <mxPoint x="632" y="290" />
            </Array>
          </mxGeometry>
        </mxCell>
        <mxCell id="4idgu7EIr6EQUySL27Tn-13" value="NULL" style="rounded=0;whiteSpace=wrap;html=1;fillColor=#dae8fc;strokeColor=#6c8ebf;strokeWidth=2;" parent="1" vertex="1">
          <mxGeometry x="679" y="201" width="71" height="60" as="geometry" />
        </mxCell>
        <mxCell id="4idgu7EIr6EQUySL27Tn-14" value="帧指针" style="text;html=1;align=center;verticalAlign=middle;resizable=0;points=[];autosize=1;strokeWidth=2;fontColor=#3399FF;" parent="1" vertex="1">
          <mxGeometry x="65.5" y="173" width="46" height="18" as="geometry" />
        </mxCell>
        <mxCell id="4idgu7EIr6EQUySL27Tn-15" value="函数指令地址" style="text;html=1;align=center;verticalAlign=middle;resizable=0;points=[];autosize=1;fontColor=#3399FF;" parent="1" vertex="1">
          <mxGeometry x="118.5" y="173" width="82" height="18" as="geometry" />
        </mxCell>
        <mxCell id="4idgu7EIr6EQUySL27Tn-24" style="edgeStyle=none;curved=1;orthogonalLoop=1;jettySize=auto;html=1;strokeColor=#66B2FF;strokeWidth=1;fontSize=15;fontColor=#3399FF;shape=flexArrow;startSize=2;endSize=8.33;startArrow=none;startFill=0;opacity=70;endWidth=10;" parent="1" edge="1">
          <mxGeometry relative="1" as="geometry">
            <mxPoint x="175" y="129.5" as="sourcePoint" />
            <mxPoint x="284" y="129.5" as="targetPoint" />
            <Array as="points" />
          </mxGeometry>
        </mxCell>
        <mxCell id="4idgu7EIr6EQUySL27Tn-18" value="funcC" style="text;html=1;align=center;verticalAlign=middle;resizable=0;points=[];autosize=1;fontColor=#3399FF;fontSize=15;" parent="1" vertex="1">
          <mxGeometry x="100.5" y="119" width="49" height="22" as="geometry" />
        </mxCell>
        <mxCell id="4idgu7EIr6EQUySL27Tn-25" style="edgeStyle=none;curved=1;orthogonalLoop=1;jettySize=auto;html=1;strokeColor=#66B2FF;strokeWidth=1;fontSize=15;fontColor=#3399FF;shape=flexArrow;startSize=2;endSize=8.33;startArrow=none;startFill=0;opacity=70;endWidth=10;" parent="1" edge="1">
          <mxGeometry relative="1" as="geometry">
            <mxPoint x="391" y="129.5" as="sourcePoint" />
            <mxPoint x="500" y="129.5" as="targetPoint" />
            <Array as="points" />
          </mxGeometry>
        </mxCell>
        <mxCell id="4idgu7EIr6EQUySL27Tn-26" value="" style="endArrow=classic;html=1;strokeWidth=2;fontSize=15;fontColor=#3399FF;opacity=70;exitX=1;exitY=0.5;exitDx=0;exitDy=0;entryX=0;entryY=0.568;entryDx=0;entryDy=0;entryPerimeter=0;strokeColor=#3399FF;" parent="1" source="4idgu7EIr6EQUySL27Tn-2" target="4idgu7EIr6EQUySL27Tn-19" edge="1">
          <mxGeometry width="50" height="50" relative="1" as="geometry">
            <mxPoint x="360" y="308" as="sourcePoint" />
            <mxPoint x="247" y="233" as="targetPoint" />
          </mxGeometry>
        </mxCell>
        <mxCell id="4idgu7EIr6EQUySL27Tn-28" value="" style="endArrow=classic;html=1;strokeWidth=2;fontSize=15;fontColor=#3399FF;opacity=70;exitX=1;exitY=0.5;exitDx=0;exitDy=0;entryX=0;entryY=0.568;entryDx=0;entryDy=0;entryPerimeter=0;strokeColor=#3399FF;" parent="1" edge="1">
          <mxGeometry width="50" height="50" relative="1" as="geometry">
            <mxPoint x="407" y="230.5" as="sourcePoint" />
            <mxPoint x="463" y="230.56399999999996" as="targetPoint" />
          </mxGeometry>
        </mxCell>
        <mxCell id="4idgu7EIr6EQUySL27Tn-29" value="" style="endArrow=classic;html=1;strokeWidth=2;fontSize=15;fontColor=#3399FF;opacity=70;exitX=1;exitY=0.5;exitDx=0;exitDy=0;entryX=0;entryY=0.568;entryDx=0;entryDy=0;entryPerimeter=0;strokeColor=#3399FF;" parent="1" edge="1">
          <mxGeometry width="50" height="50" relative="1" as="geometry">
            <mxPoint x="619" y="230.5" as="sourcePoint" />
            <mxPoint x="675" y="230.56399999999996" as="targetPoint" />
          </mxGeometry>
        </mxCell>
        <mxCell id="4idgu7EIr6EQUySL27Tn-31" value="" style="endArrow=classic;html=1;strokeWidth=2;fontSize=15;fontColor=#3399FF;opacity=70;entryX=0.5;entryY=1;entryDx=0;entryDy=0;strokeColor=#3399FF;" parent="1" target="4idgu7EIr6EQUySL27Tn-17" edge="1">
          <mxGeometry width="50" height="50" relative="1" as="geometry">
            <mxPoint x="124" y="332" as="sourcePoint" />
            <mxPoint x="174.5" y="332.06399999999996" as="targetPoint" />
          </mxGeometry>
        </mxCell>
        <mxCell id="4idgu7EIr6EQUySL27Tn-33" value="&lt;font style=&quot;font-size: 15px&quot;&gt;rip&lt;/font&gt;" style="rounded=0;whiteSpace=wrap;html=1;fillColor=#dae8fc;strokeColor=#6c8ebf;strokeWidth=2;" parent="1" vertex="1">
          <mxGeometry x="88" y="332" width="71" height="60" as="geometry" />
        </mxCell>
      </root>
    </mxGraphModel>
  </diagram>
</mxfile>
